<svg xmlns="http://www.w3.org/2000/svg" xml:space="preserve" style="fill-rule:evenodd;clip-rule:evenodd;stroke-linecap:round;stroke-miterlimit:100" viewBox="0 0 324 286"><path d="M100.65 24.07a3.7 3.7 0 0 1 3.7 0l47.83 27.61a3.7 3.7 0 0 1 1.85 3.2v55.24a3.7 3.7 0 0 1-1.85 3.2l-47.83 27.61a3.7 3.7 0 0 1-3.7 0l-47.83-27.61a3.7 3.7 0 0 1-1.85-3.2V54.88c0-1.32.7-2.54 1.85-3.2l47.83-27.61Zm23.53 24.56a3.7 3.7 0 0 0-3.2-1.84H84.02a3.7 3.7 0 0 0-3.2 1.84L62.33 80.65a3.7 3.7 0 0 0 0 3.7l18.48 32.02a3.7 3.7 0 0 0 3.2 1.84H121a3.7 3.7 0 0 0 3.2-1.84l18.48-32.02a3.7 3.7 0 0 0 0-3.7L124.2 48.63Z" style="fill:#f9be2e" transform="scale(2.70756) rotate(30 136.87 -12.04)"/><path d="M198.88 144.97 153 96.67" style="fill:none;stroke:#fc9f27;stroke-width:21.19px" transform="matrix(.94392 0 0 .94392 -4.08 28.5)"/><path d="M198.88 144.97 153 96.67" style="fill:none;stroke:#fc9f27;stroke-width:21.19px" transform="rotate(-91.47 177.93 130.28) scale(.94392)"/><path d="M97.52 104.51c1.6-1.46 3.58-.31 4.4 2.57.81 2.88.17 6.4-1.44 7.86-2.68 2.45-4 4.52-4.46 6.9-.47 2.5-.07 4.96.07 7.38.29 4.74.28 9.36-1.73 13.9.96 3.63 1.1 7.93 1.02 12.52-.06 3.38-.36 7 .74 9.93a7.83 7.83 0 0 0 3.84 4.2c1.73.96 2.7 4.24 2.16 7.32-.53 3.1-2.36 4.82-4.08 3.87-4.03-2.22-6.24-5.65-7.53-9.38-1.3-3.73-1.68-7.93-1.7-12.21-.02-2.54.1-5.1.06-7.49-.03-1.79-.01-3.54-.84-4.66l-3.46-4.69 3.47-4.66c2.53-3.41 1.54-7.12 1.34-10.73-.2-3.84-.1-7.7 1.07-11.63a23.7 23.7 0 0 1 7.07-11Z" style="fill:#fc9f27" transform="matrix(3.05974 0 0 1.70869 -187.14 -101.02)"/><path d="M97.52 104.51c1.6-1.46 3.58-.31 4.4 2.57.81 2.88.17 6.4-1.44 7.86-2.68 2.45-4 4.52-4.46 6.9-.47 2.5-.07 4.96.07 7.38.29 4.74.28 9.36-1.73 13.9.96 3.63 1.1 7.93 1.02 12.52-.06 3.38-.36 7 .74 9.93a7.83 7.83 0 0 0 3.84 4.2c1.73.96 2.7 4.24 2.16 7.32-.53 3.1-2.36 4.82-4.08 3.87-4.03-2.22-6.24-5.65-7.53-9.38-1.3-3.73-1.68-7.93-1.7-12.21-.02-2.54.1-5.1.06-7.49-.03-1.79-.01-3.54-.84-4.66l-3.46-4.69 3.47-4.66c2.53-3.41 1.54-7.12 1.34-10.73-.2-3.84-.1-7.7 1.07-11.63a23.7 23.7 0 0 1 7.07-11Z" style="fill:#fc9f27" transform="matrix(-3.05974 0 0 -1.70869 511.14 386.12)"/></svg>